Coordinates
version=1
nRows=20
nColumns=30
inDegrees=yes

Units are S.I. units (second, meters, Newtons, ...)
Angles are in degrees.

endheader
time	floatyaw	floatroll	floatpitch	floatx	floaty	floatz	pro_sup_l	deviation_l	flexion_l	cmc_flexion_l	cmc_abduction_l	mp_flexion_l	ip_flexion_l	2mcp_flexion_l	2mcp_abduction_l	2pm_flexion_l	2md_flexion_l	3mcp_flexion_l	3mcp_abduction_l	3pm_flexion_l	3md_flexion_l	4mcp_flexion_l	4mcp_abduction_l	4pm_flexion_l	4md_flexion_l	5mcp_flexion_l	5mcp_abduction_l	5pm_flexion_l	5md_flexion_l
-0.495000	-3.995636	-4.876138	96.430707	-0.084923	-0.172889	-0.027735	87.132503	2.437204	-3.690914	14.470421	6.483377	-22.959800	-35.984737	38.741681	8.781630	52.331782	36.752107	25.077636	4.943920	49.928925	34.910040	14.248872	-5.089235	64.627325	44.647206	6.572208	-7.811141	64.915147	43.762069
-0.485000	-3.995636	-4.876138	96.430707	-0.083382	-0.171844	-0.026722	87.402728	2.414811	-3.692199	14.372571	6.646176	-22.924667	-35.908212	38.684581	8.739722	52.429964	36.809987	25.277024	4.938426	49.952774	34.941239	14.395683	-5.052161	64.672658	44.689432	6.812335	-7.865695	65.004870	43.756158
-0.475000	-3.995636	-4.876138	96.430707	-0.081740	-0.170719	-0.025662	87.659468	2.328382	-3.582167	14.356359	6.805972	-22.877735	-35.836068	38.531293	8.685812	52.415881	36.825786	25.409742	4.930878	49.965942	34.976128	14.473821	-5.016028	64.713412	44.727777	7.003770	-7.917950	65.059422	43.744243
-0.465000	-3.995636	-4.876138	96.430707	-0.079990	-0.169533	-0.024557	87.876600	2.193002	-3.345072	14.409012	6.991654	-22.827527	-35.788150	38.295470	8.622807	52.284016	36.791122	25.466334	4.923263	49.973672	35.014482	14.500120	-4.988398	64.743903	44.765772	7.152017	-7.955355	65.071524	43.724551
-0.455000	-3.995636	-4.876138	96.430707	-0.078115	-0.168306	-0.023398	88.038943	2.032313	-2.994727	14.503598	7.236018	-22.781176	-35.776813	38.028903	8.550768	52.069773	36.710974	25.472895	4.919020	49.995799	35.061525	14.529588	-4.973702	64.767553	44.810919	7.308712	-7.969793	65.060599	43.698522
-0.445000	-3.995636	-4.876138	96.430707	-0.076086	-0.167056	-0.022176	88.146329	1.875211	-2.569290	14.607481	7.568320	-22.742918	-35.802604	37.799347	8.466567	51.845466	36.606711	25.482321	4.922846	50.066775	35.130118	14.638188	-4.972910	64.800738	44.874170	7.562941	-7.960050	65.067237	43.669439
-0.435000	-3.995636	-4.876138	96.430707	-0.073865	-0.165790	-0.020879	88.212049	1.751464	-2.116342	14.690812	8.009871	-22.715698	-35.856697	37.658417	8.364908	51.695214	36.511366	25.554888	4.938833	50.226330	35.238731	14.894574	-4.984076	64.870849	44.967813	8.012377	-7.931574	65.136479	43.640056
-0.425000	-3.995636	-4.876138	96.430707	-0.071406	-0.164493	-0.019492	88.256117	1.685943	-1.674980	14.733869	8.572460	-22.704697	-35.929608	37.617547	8.239379	51.680539	36.458757	25.737519	4.967711	50.503285	35.404908	15.334986	-5.003192	65.006753	45.101663	8.725217	-7.893111	65.299075	43.610971
-0.415000	-3.995636	-4.876138	96.430707	-0.068658	-0.163128	-0.017996	88.296455	1.692353	-1.263067	14.733506	9.256186	-22.719732	-36.021656	37.645554	8.083023	51.815025	36.471570	26.050290	5.004746	50.899509	35.636556	15.952743	-5.025328	65.224305	45.278749	9.709792	-7.850659	65.559480	43.580489
-0.405000	-3.995636	-4.876138	96.430707	-0.065567	-0.161640	-0.016360	88.342576	1.769334	-0.875047	14.708197	10.044506	-22.773719	-36.148750	37.687849	7.888785	52.060025	36.553225	26.483966	5.039770	51.381676	35.924916	16.705281	-5.046135	65.513860	45.492602	10.906569	-7.800747	65.894227	43.545179
-0.395000	-3.995636	-4.876138	96.430707	-0.062084	-0.159970	-0.014549	88.394806	1.902259	-0.490918	14.698263	10.900719	-22.876700	-36.338553	37.693806	7.650230	52.342349	36.686549	27.007506	5.060075	51.886168	36.243040	17.533915	-5.062972	65.838002	45.727952	12.208531	-7.727745	66.260146	43.500191
-0.385000	-3.995636	-4.876138	96.430707	-0.058170	-0.158064	-0.012523	88.448075	2.071880	-0.092269	14.756395	11.774455	-23.028315	-36.617266	37.634784	7.363201	52.586242	36.840538	27.580870	5.055736	52.337872	36.552088	18.386698	-5.074627	66.143742	45.965314	13.503247	-7.610410	66.609958	43.439638
-0.375000	-3.995636	-4.876138	96.430707	-0.053799	-0.155893	-0.010248	88.496722	2.267075	0.321639	14.927136	12.621447	-23.213543	-36.993278	37.504175	7.029252	52.746241	36.983528	28.166971	5.025270	52.677094	36.814392	19.233411	-5.079727	66.385420	46.188054	14.717221	-7.437294	66.910493	43.358235
-0.365000	-3.995636	-4.876138	96.430707	-0.048951	-0.153457	-0.007702	88.537778	2.495905	0.724826	15.221816	13.427602	-23.405256	-37.446637	37.305688	6.660138	52.825956	37.097129	28.738352	4.978444	52.882965	37.007991	20.066147	-5.075705	66.547358	46.389029	15.838294	-7.221243	67.155823	43.254440
-0.355000	-3.995636	-4.876138	96.430707	-0.043622	-0.150791	-0.004877	88.572585	2.788851	1.066666	15.602031	14.221656	-23.573247	-37.930903	37.044227	6.279707	52.874160	37.183947	29.278348	4.933814	52.981426	37.135268	20.888137	-5.060010	66.654016	46.573564	16.903010	-7.000051	67.368036	43.133536
-0.345000	-3.995636	-4.876138	96.430707	-0.037830	-0.147966	-0.001791	88.607158	3.190630	1.284527	15.983946	15.067155	-23.695968	-38.388429	36.728491	5.919370	52.961843	37.265466	29.779835	4.911436	53.033208	37.221092	21.700780	-5.033063	66.761390	46.757383	17.959188	-6.819130	67.585524	43.008465
-0.335000	-3.995636	-4.876138	96.430707	-0.031627	-0.145078	0.001512	88.650742	3.741847	1.322580	16.266025	16.038791	-23.769765	-38.774139	36.381531	5.607930	53.153431	37.372201	30.244597	4.924312	53.108192	37.302318	22.498310	-5.000428	66.933549	46.961266	19.031168	-6.706740	67.847723	42.897905
-0.325000	-3.995636	-4.876138	96.430707	-0.025093	-0.142229	0.004970	88.712238	4.457239	1.150434	16.369029	17.196874	-23.811447	-39.078022	36.046894	5.361839	53.485734	37.531864	30.683712	4.972942	53.259872	37.415427	23.272250	-4.971903	67.216935	47.206272	20.110519	-6.659078	68.186859	42.822981
-0.315000	-3.995636	-4.876138	96.430707	-0.018329	-0.139514	0.008518	88.795987	5.310859	0.775445	16.268345	18.570053	-23.852896	-39.334867	35.780990	5.182233	53.960992	37.760791	31.116659	5.045435	53.512010	37.588421	24.020183	-4.957596	67.626290	47.511768	21.172505	-6.645029	68.628906	42.804041
-0.305000	-3.995636	-4.876138	96.430707	-0.011446	-0.137007	0.012093	88.899733	6.236828	0.244523	16.001469	20.146959	-23.930049	-39.613802	35.633692	5.060080	54.551618	38.060448	31.566449	5.122524	53.860893	37.838281	24.750630	-4.963289	68.148334	47.894864	22.199005	-6.625508	69.196283	42.857485
